<?xml version="1.0" encoding="iso-8859-1"?>
<!-- Generator: Adobe Illustrator 19.0.0, SVG Export Plug-In . SVG Version: 6.00 Build 0)  -->
<svg xmlns="http://www.w3.org/2000/svg" xmlns:xlink="http://www.w3.org/1999/xlink" version="1.1" id="Layer_1" x="0px" y="0px" viewBox="0 0 512 512" style="enable-background:new 0 0 512 512;" xml:space="preserve">
<circle style="fill:#7FC8F1;" cx="255.996" cy="255.997" r="255.996"/>
<path style="fill:#009AE5;" d="M512,256c0-11.44-0.762-22.702-2.216-33.746l-60.785-60.785  c-4.294-7.192-12.156-12.038-21.097-12.038H227.709c-0.73-0.659-1.476-1.302-2.238-1.925c-2.566-3.139-5.441-6.014-8.58-8.58  c-11.052-13.522-27.849-22.16-46.676-22.16c-23.336,0-43.561,13.268-53.582,32.664H84.098c-13.505,0-24.555,11.05-24.555,24.555  v6.14c0,8.941,4.845,16.802,12.038,21.096L176.761,307.32H84.098c-13.505,0-24.555,11.05-24.555,24.555v6.139  c0,8.941,4.845,16.803,12.038,21.097l150.672,150.672c11.043,1.454,22.305,2.216,33.746,2.216C397.385,512,512,397.385,512,256z"/>
<path style="fill:#3A4DE3;" d="M427.902,204.681H84.098c-13.505,0-24.555-11.05-24.555-24.555v-6.139  c0-13.505,11.05-24.555,24.555-24.555H427.9c13.505,0,24.555,11.05,24.555,24.555v6.139  C452.456,193.631,441.407,204.681,427.902,204.681z"/>
<path style="fill:#1C2EDE;" d="M427.902,204.681c13.505,0,24.555-11.05,24.555-24.555v-6.14c0-13.505-11.05-24.555-24.555-24.555  H255.999v55.249H427.902z"/>
<path style="fill:#3A4DE3;" d="M84.098,307.32H427.9c13.505,0,24.555,11.05,24.555,24.555v6.14c0,13.505-11.05,24.555-24.555,24.555  H84.098c-13.505,0-24.555-11.05-24.555-24.555v-6.14C59.544,318.37,70.593,307.32,84.098,307.32z"/>
<path style="fill:#1C2EDE;" d="M427.902,362.57c13.505,0,24.555-11.05,24.555-24.555v-6.139c0-13.505-11.05-24.555-24.555-24.555  H255.999v55.248H427.902z"/>
<circle style="fill:#FFFFFF;" cx="170.211" cy="177.056" r="60.289"/>
<circle style="fill:#E1E1E3;" cx="341.781" cy="334.948" r="60.289"/>
<g>
</g>
<g>
</g>
<g>
</g>
<g>
</g>
<g>
</g>
<g>
</g>
<g>
</g>
<g>
</g>
<g>
</g>
<g>
</g>
<g>
</g>
<g>
</g>
<g>
</g>
<g>
</g>
<g>
</g>
</svg>
